<?xml version="1.0" encoding="UTF-8"?>
<!DOCTYPE svg PUBLIC "-//W3C//DTD SVG 1.1//EN" "http://www.w3.org/Graphics/SVG/1.1/DTD/svg11.dtd">
<svg xmlns="http://www.w3.org/2000/svg" version="1.1" width="3224px" height="2496px" style="shape-rendering:geometricPrecision; text-rendering:geometricPrecision; image-rendering:optimizeQuality; fill-rule:evenodd; clip-rule:evenodd" xmlns:xlink="http://www.w3.org/1999/xlink">
<g><path style="opacity:0.994" fill="#5190c6" d="M 1114.5,114.5 C 1116.6,114.201 1118.6,114.534 1120.5,115.5C 1119.96,116.748 1119.29,117.915 1118.5,119C 1122.29,119.12 1123.79,120.954 1123,124.5C 1081.55,190.401 1049.55,260.734 1027,335.5C 1010.85,390.378 1001.85,446.378 1000,503.5C 1057.29,531.545 1110.46,565.711 1159.5,606C 1183.94,626.763 1205.11,650.263 1223,676.5C 1234.32,694.15 1242.66,713.15 1248,733.5C 1249.45,741.786 1249.79,750.119 1249,758.5C 1248.14,756.913 1247.47,755.246 1247,753.5C 1246.39,756.032 1244.89,756.865 1242.5,756C 1163.83,697.374 1078.83,686.374 987.5,723C 956.281,736.602 926.947,753.269 899.5,773C 884.118,785.383 868.451,797.383 852.5,809C 846.698,813.8 841.198,818.967 836,824.5C 797.807,874.556 770.474,930.223 754,991.5C 747.951,1015.19 742.785,1039.02 738.5,1063C 744.419,1204.24 806.753,1312.24 925.5,1387C 939.37,1394.43 952.704,1402.59 965.5,1411.5C 965.081,1412.67 964.415,1413.67 963.5,1414.5C 912.345,1440.36 858.678,1447.19 802.5,1435C 764.255,1425.37 729.255,1409.04 697.5,1386C 669.482,1365.15 643.815,1341.65 620.5,1315.5C 618.444,1325.37 618.277,1335.37 620,1345.5C 644.898,1390.08 675.731,1430.25 712.5,1466C 784.471,1529.86 865.805,1545.19 956.5,1512C 998.726,1495.73 1037.73,1474.06 1073.5,1447C 1121.62,1410.57 1166.45,1370.07 1208,1325.5C 1232.08,1299.43 1255.41,1272.76 1278,1245.5C 1288.08,1237.1 1296.25,1227.27 1302.5,1216C 1297.77,1206.58 1291.44,1198.25 1283.5,1191C 1269.98,1179.4 1254.98,1170.07 1238.5,1163C 1203.65,1149.29 1167.65,1139.95 1130.5,1135C 1102.42,1131.66 1074.42,1127.82 1046.5,1123.5C 1054.32,1115.84 1062.32,1108.34 1070.5,1101C 1152.59,1039.14 1244.26,997.47 1345.5,976C 1442.97,955.543 1541.31,949.876 1640.5,959C 1641.13,959.75 1641.63,960.584 1642,961.5C 1754.33,863.735 1875.83,778.901 2006.5,707C 2078.27,668.188 2153.27,637.188 2231.5,614C 2309.89,590.868 2389.89,581.535 2471.5,586C 2508.35,587.587 2544.35,593.92 2579.5,605C 2582.71,605.625 2583.71,607.291 2582.5,610C 2584.11,617.386 2585.28,624.886 2586,632.5C 2592.86,759.311 2573.53,881.977 2528,1000.5C 2490.85,1095.49 2442.85,1184.16 2384,1266.5C 2334.86,1334.34 2281.19,1398.68 2223,1459.5C 2206.19,1557.61 2171.86,1648.94 2120,1733.5C 2093.93,1774.91 2062.1,1811.41 2024.5,1843C 2023.22,1843.68 2022.05,1843.52 2021,1842.5C 2019.13,1820.12 2016.8,1797.79 2014,1775.5C 2011.08,1754.4 2004.75,1734.4 1995,1715.5C 1989.59,1707.42 1983.42,1699.92 1976.5,1693C 1973.64,1690.82 1970.47,1689.32 1967,1688.5C 1895.47,1746.68 1814.3,1785.84 1723.5,1806C 1692.23,1813.38 1660.56,1818.05 1628.5,1820C 1626.67,1820.5 1625.5,1821.67 1625,1823.5C 1610.83,1863.2 1590.49,1899.2 1564,1931.5C 1519.85,1984.67 1468.68,2029.5 1410.5,2066C 1344.73,2106.72 1275.73,2141.39 1203.5,2170C 1196.72,2172.87 1189.72,2175.04 1182.5,2176.5C 1179.93,2175.28 1177.6,2173.62 1175.5,2171.5C 1194.57,2146.37 1212.4,2120.37 1229,2093.5C 1256.29,2045.58 1276.96,1994.91 1291,1941.5C 1298.03,1911.53 1304.86,1881.53 1311.5,1851.5C 1310.67,1851.17 1309.83,1850.83 1309,1850.5C 1268.49,1857.8 1227.65,1862.3 1186.5,1864C 1139.5,1864.67 1092.5,1864.67 1045.5,1864C 979.169,1860.28 914.502,1847.95 851.5,1827C 718.688,1780.52 626.854,1691.69 576,1560.5C 553.259,1498.46 539.592,1434.46 535,1368.5C 534.333,1324.17 534.333,1279.83 535,1235.5C 547.77,1041.82 624.604,878.985 765.5,747C 790.219,723.938 816.386,702.771 844,683.5C 847.591,590.692 862.258,499.692 888,410.5C 907.763,343.643 938.096,282.31 979,226.5C 1015.95,179.034 1061.12,141.7 1114.5,114.5 Z M 2545.5,650.5 C 2546.5,650.5 2547.5,650.5 2548.5,650.5C 2545.62,683.155 2542.79,715.822 2540,748.5C 2538.14,769.369 2535.14,790.036 2531,810.5C 2465.61,821.629 2403.78,843.129 2345.5,875C 2265.66,920.133 2193.82,975.966 2130,1042.5C 2059.48,1116.79 1997.31,1197.29 1943.5,1284C 1943.83,1284.5 1944.17,1285 1944.5,1285.5C 1946.36,1284.47 1947.69,1282.97 1948.5,1281C 1949.45,1280.52 1950.45,1280.35 1951.5,1280.5C 1951.19,1284.33 1952.86,1285.83 1956.5,1285C 2013.85,1251.32 2071.85,1218.65 2130.5,1187C 2176.17,1162.83 2222.84,1140.83 2270.5,1121C 2303.17,1107.44 2336.84,1097.11 2371.5,1090C 2392.82,1085.56 2414.15,1085.9 2435.5,1091C 2439.64,1092.73 2442.98,1095.39 2445.5,1099C 2395.49,1206.25 2329.99,1302.75 2249,1388.5C 2151.56,1489 2042.39,1573.84 1921.5,1643C 1838.18,1690.66 1752.18,1732.99 1663.5,1770C 1655.5,1770.67 1647.5,1770.67 1639.5,1770C 1634.69,1764.52 1630.69,1758.52 1627.5,1752C 1634.79,1732.68 1640.46,1712.84 1644.5,1692.5C 1644.08,1689.63 1643.91,1686.63 1644,1683.5C 1631.36,1653.85 1612.86,1628.35 1588.5,1607C 1578.33,1598.83 1568.17,1590.67 1558,1582.5C 1553.81,1557.79 1553.15,1533.12 1556,1508.5C 1557.33,1496.52 1560.66,1485.19 1566,1474.5C 1567.38,1472.79 1569.04,1471.45 1571,1470.5C 1575.37,1472.27 1579.54,1474.44 1583.5,1477C 1602.19,1494.51 1617.19,1514.68 1628.5,1537.5C 1629.79,1535.34 1630.62,1533.01 1631,1530.5C 1631.47,1532.25 1632.14,1533.91 1633,1535.5C 1634.03,1506.82 1635.37,1478.15 1637,1449.5C 1637.93,1426.2 1642.93,1403.87 1652,1382.5C 1657.99,1371.06 1666.99,1367.73 1679,1372.5C 1688.13,1394.89 1695.46,1417.89 1701,1441.5C 1706.92,1474.12 1712.42,1506.79 1717.5,1539.5C 1738.03,1481.74 1758.87,1424.07 1780,1366.5C 1825.02,1247.61 1883.18,1136.11 1954.5,1032C 1991.57,1010.03 2031.24,994.866 2073.5,986.5C 2116.75,943.745 2161.09,902.245 2206.5,862C 2262.62,813.284 2321.95,768.951 2384.5,729C 2435.56,697.47 2489.23,671.304 2545.5,650.5 Z M 2004.5,807.5 C 2029.67,806.173 2044.84,817.839 2050,842.5C 2053.84,861.98 2048.67,878.48 2034.5,892C 2012.84,904.791 1994.34,901.291 1979,881.5C 1969,862.833 1969,844.167 1979,825.5C 1985.1,815.886 1993.6,809.886 2004.5,807.5 Z"/></g>
<g><path style="opacity:0.905" fill="#5190c6" d="M 2009.5,818.5 C 2029.16,818.997 2041.66,828.664 2047,847.5C 2048.97,868.841 2039.8,882.674 2019.5,889C 1996.35,891.172 1982.19,881.005 1977,858.5C 1976.69,835.989 1987.52,822.656 2009.5,818.5 Z"/></g>
<g><path style="opacity:0.979" fill="#5190c6" d="M 2417.5,1545.5 C 2425.42,1543.3 2430.58,1545.97 2433,1553.5C 2435.82,1596.57 2431.49,1638.9 2420,1680.5C 2416.09,1695.82 2408.92,1709.32 2398.5,1721C 2395.5,1723.5 2392.16,1725.5 2388.5,1727C 2370,1731 2356.83,1724.5 2349,1707.5C 2347.61,1693.29 2348.61,1679.29 2352,1665.5C 2364.68,1629.15 2381.34,1594.81 2402,1562.5C 2406.32,1556.01 2411.49,1550.35 2417.5,1545.5 Z"/></g>
<g><path style="opacity:0.975" fill="#5190c6" d="M 2282.5,1561.5 C 2285.19,1561.34 2287.85,1561.5 2290.5,1562C 2296.36,1567.54 2300.86,1574.04 2304,1581.5C 2315.79,1606.86 2324.79,1633.19 2331,1660.5C 2332.52,1671.79 2332.86,1683.12 2332,1694.5C 2326.18,1711 2314.68,1716.83 2297.5,1712C 2289.44,1706.93 2283.94,1699.76 2281,1690.5C 2277.97,1680.71 2275.97,1670.71 2275,1660.5C 2274.33,1635.17 2274.33,1609.83 2275,1584.5C 2275.23,1575.99 2277.73,1568.32 2282.5,1561.5 Z"/></g>
<g><path style="opacity:0.967" fill="#5190c6" d="M 2491.5,1677.5 C 2495.85,1677.33 2500.18,1677.5 2504.5,1678C 2505.63,1681.74 2505.79,1685.58 2505,1689.5C 2489.33,1719.64 2469.17,1746.48 2444.5,1770C 2439.17,1774.67 2433.17,1778.34 2426.5,1781C 2405.5,1783.66 2396,1774.5 2398,1753.5C 2401.12,1746.05 2405.45,1739.38 2411,1733.5C 2435.53,1711.46 2462.36,1692.8 2491.5,1677.5 Z"/></g>
<g><path style="opacity:0.969" fill="#5190c6" d="M 734.5,1869.5 C 737.518,1869.34 740.518,1869.5 743.5,1870C 750.262,1874.76 756.429,1880.26 762,1886.5C 777.133,1904.1 790.8,1922.77 803,1942.5C 806.549,1948.93 809.549,1955.6 812,1962.5C 816.871,1985.7 807.704,1996.53 784.5,1995C 776.382,1990.55 769.882,1984.38 765,1976.5C 750.729,1950.36 740.396,1922.69 734,1893.5C 733.23,1885.45 733.397,1877.45 734.5,1869.5 Z"/></g>
<g><path style="opacity:0.977" fill="#5190c6" d="M 588.5,1906.5 C 596.174,1906.33 603.841,1906.5 611.5,1907C 651.554,1918.86 689.22,1935.86 724.5,1958C 735.873,1965.37 744.373,1975.2 750,1987.5C 752.308,2016.19 739.141,2029.03 710.5,2026C 696.009,2021.09 682.675,2014.09 670.5,2005C 644.148,1984.65 619.648,1962.15 597,1937.5C 592.586,1932.34 588.919,1926.68 586,1920.5C 584.718,1915.29 585.551,1910.63 588.5,1906.5 Z"/></g>
<g><path style="opacity:0.975" fill="#5190c6" d="M 617.5,2032.5 C 638.503,2032.33 659.503,2032.5 680.5,2033C 693.664,2034 704.831,2039.17 714,2048.5C 714.667,2049.83 715.333,2051.17 716,2052.5C 720.952,2069.09 715.452,2080.26 699.5,2086C 673.247,2088.77 647.581,2086.1 622.5,2078C 610.711,2074.74 599.044,2071.07 587.5,2067C 580.058,2064.11 573.058,2060.45 566.5,2056C 562.567,2049.04 564.234,2044.04 571.5,2041C 586.681,2036.62 602.015,2033.79 617.5,2032.5 Z"/></g>
</svg>
